<svg width="1419" height="341" viewBox="0 0 1419 341" fill="none" xmlns="http://www.w3.org/2000/svg">
<path d="M170.222 0C76.2117 0 0 76.2117 0 170.222C0 264.233 76.2117 340.444 170.222 340.444C264.233 340.444 340.444 264.233 340.444 170.222C340.444 76.2117 264.233 0 170.222 0ZM63.529 214.635C64.7936 215.16 66.0739 215.701 67.3595 216.246C67.3228 217.485 67.286 218.728 67.2598 219.988C65.927 219.374 64.5994 218.77 63.2824 218.172C63.3558 216.981 63.4398 215.8 63.529 214.635ZM62.999 177.065C63.2929 176.32 63.5867 175.59 63.891 174.871C64.2164 174.856 64.5365 174.829 64.8618 174.819C64.6414 175.595 64.4263 176.383 64.2111 177.18C63.8071 177.143 63.3978 177.096 62.999 177.065ZM64.0117 209.126C64.1114 208.092 64.2164 207.069 64.3266 206.061C65.46 206.476 66.5986 206.901 67.7531 207.336C67.6901 208.417 67.6324 209.509 67.5799 210.611C66.3835 210.102 65.1924 209.608 64.0117 209.126ZM64.9772 200.73C65.0927 199.859 65.2134 198.993 65.3393 198.138C66.331 198.442 67.3333 198.762 68.346 199.088C68.2673 200.011 68.1886 200.94 68.1204 201.879C67.0604 201.491 66.0162 201.103 64.9772 200.73ZM66.1631 192.927C66.2786 192.266 66.394 191.615 66.5147 190.965C67.3647 191.159 68.2201 191.374 69.0859 191.589C69.0019 192.308 68.9284 193.037 68.8497 193.762C67.9472 193.473 67.0499 193.195 66.1631 192.927ZM66.373 169.524C66.4989 169.283 66.6196 169.031 66.7456 168.795C66.6616 169.036 66.5829 169.283 66.5042 169.524C66.457 169.519 66.415 169.524 66.373 169.524ZM67.5327 185.801C67.7373 184.836 67.9524 183.876 68.1728 182.936C68.8392 183.031 69.5057 183.136 70.1826 183.246C70.0304 184.259 69.8835 185.287 69.7418 186.326C68.9967 186.142 68.262 185.969 67.5327 185.801ZM69.4637 177.826C69.7418 176.808 70.0304 175.811 70.3242 174.829C70.7597 174.845 71.19 174.861 71.6308 174.887C71.4262 175.937 71.2268 176.996 71.0326 178.077C70.5079 177.988 69.9832 177.904 69.4637 177.826ZM78.4103 175.553C78.2529 176.829 78.1112 178.119 77.9748 179.415C77.3661 179.279 76.7732 179.158 76.1697 179.032C76.3901 177.784 76.621 176.55 76.8571 175.344C77.3713 175.412 77.8908 175.48 78.4103 175.553ZM77.9748 170.201C78.2004 169.236 78.4365 168.296 78.6727 167.362C78.9718 167.362 79.2656 167.362 79.57 167.368C79.4125 168.349 79.2551 169.341 79.1134 170.343C78.7251 170.29 78.3526 170.248 77.9748 170.201ZM77.4763 184.678C77.3713 185.901 77.2769 187.129 77.1877 188.362C76.4006 188.131 75.6188 187.9 74.8422 187.68C74.9996 186.51 75.157 185.35 75.3249 184.211C76.0438 184.358 76.7522 184.511 77.4763 184.678ZM76.8519 193.735C76.8046 194.627 76.7574 195.519 76.7154 196.417C75.7867 196.086 74.8631 195.761 73.9449 195.446C74.0288 194.612 74.1128 193.783 74.202 192.959C75.0783 193.205 75.9598 193.468 76.8519 193.735ZM76.5055 201.911C76.4741 202.976 76.4426 204.046 76.4216 205.122C75.3511 204.686 74.2912 204.261 73.2365 203.847C73.3099 202.829 73.3834 201.816 73.4621 200.819C74.4696 201.165 75.4876 201.533 76.5055 201.911ZM76.3586 220.197C76.3744 221.567 76.4006 222.937 76.4268 224.311C75.0993 223.671 73.7769 223.041 72.4599 222.422C72.4809 221.105 72.5071 219.793 72.5438 218.497C73.8084 219.054 75.073 219.62 76.3586 220.197ZM72.738 212.83C72.7852 211.66 72.8429 210.495 72.9006 209.346C74.0341 209.803 75.178 210.264 76.3376 210.742C76.3271 211.964 76.3219 213.187 76.3219 214.415C75.115 213.874 73.9186 213.344 72.738 212.83ZM72.7327 169.697C72.4861 169.682 72.2395 169.661 71.9981 169.65C72.2395 168.958 72.4914 168.281 72.7432 167.609C72.9111 167.593 73.0791 167.578 73.247 167.562C73.0686 168.265 72.9006 168.979 72.7327 169.697ZM72.4127 228.2C73.7979 228.861 75.1937 229.532 76.5895 230.209C77.2454 250.6 79.0452 270.934 81.1022 288.696C79.1292 287.211 77.1982 285.673 75.3039 284.094C73.3519 264.023 72.3759 245.222 72.4127 228.2ZM80.1419 162.126C80.3413 161.475 80.546 160.83 80.7506 160.195C80.7978 160.189 80.8398 160.184 80.887 160.179C80.7558 160.824 80.6247 161.48 80.4987 162.136C80.3728 162.131 80.2573 162.131 80.1419 162.126ZM85.9244 167.787C85.8142 168.994 85.7093 170.217 85.6148 171.461C85.1793 171.371 84.7438 171.282 84.3135 171.198C84.4919 170.007 84.6756 168.837 84.8645 167.683C85.216 167.719 85.5676 167.751 85.9244 167.787ZM85.809 162.493C85.9926 161.569 86.1815 160.656 86.3757 159.759C86.5174 159.754 86.659 159.749 86.8007 159.749C86.68 160.677 86.5698 161.611 86.4597 162.561C86.2445 162.54 86.0294 162.514 85.809 162.493ZM85.5991 228.798C84.2925 228.147 82.9964 227.507 81.7004 226.872C81.6636 225.439 81.6321 224.017 81.6112 222.606C82.8495 223.183 84.1036 223.771 85.363 224.369C85.4364 225.849 85.5151 227.323 85.5991 228.798ZM85.258 176.745C85.1741 178.209 85.0954 179.694 85.0272 181.2C84.3922 181.021 83.7573 180.853 83.1276 180.685C83.2798 179.237 83.4425 177.815 83.6104 176.414C84.1561 176.514 84.7071 176.629 85.258 176.745ZM84.8278 186.589C84.7858 187.963 84.7543 189.359 84.7333 190.771C83.9305 190.498 83.1276 190.22 82.3353 189.957C82.4297 188.614 82.5294 187.281 82.6396 185.975C83.3585 186.174 84.0931 186.379 84.8278 186.589ZM84.6703 196.301C84.6703 196.763 84.6651 197.209 84.6598 197.676C84.6598 198.253 84.6651 198.83 84.6651 199.408C83.7258 199.035 82.7918 198.678 81.863 198.327C81.905 197.34 81.9522 196.364 81.9995 195.393C82.8862 195.682 83.773 195.986 84.6703 196.301ZM84.7175 205.069C84.7333 206.255 84.7595 207.441 84.7858 208.632C83.7153 208.171 82.6554 207.714 81.6007 207.268C81.6216 206.124 81.6479 204.986 81.6741 203.863C82.6816 204.251 83.6996 204.66 84.7175 205.069ZM84.9432 214.425C84.9852 215.758 85.0376 217.096 85.0901 218.44C83.899 217.878 82.7131 217.327 81.5429 216.792C81.5377 215.496 81.5377 214.216 81.5429 212.946C82.6659 213.423 83.7993 213.922 84.9432 214.425ZM81.884 232.807C83.2431 233.478 84.6074 234.16 85.9717 234.843C87.3989 256.241 89.8284 277.508 92.4573 296.456C90.5578 295.286 88.6845 294.074 86.8427 292.82C84.2296 271.411 82.5609 251.23 81.884 232.807ZM90.4529 220.99C90.3899 219.599 90.3322 218.214 90.2797 216.829C91.3974 217.343 92.5255 217.862 93.6589 218.392C93.7586 219.825 93.8636 221.263 93.9738 222.7C92.7931 222.118 91.6178 221.546 90.4529 220.99ZM94.4618 228.792C94.593 230.351 94.7294 231.915 94.8711 233.473C93.5802 232.817 92.2946 232.161 91.0143 231.516C90.9198 229.999 90.8307 228.483 90.7467 226.966C91.4761 227.323 92.2107 227.68 92.9453 228.042C93.4543 228.284 93.958 228.541 94.4618 228.792ZM93.0398 208.569C93.1132 209.855 93.1867 211.135 93.2654 212.426C92.2002 211.938 91.1402 211.455 90.0908 210.983C90.0593 209.74 90.0278 208.496 90.0068 207.258C91.0091 207.683 92.0218 208.123 93.0398 208.569ZM92.8561 154.674C93.003 153.767 93.15 152.88 93.3074 151.998C93.3284 151.998 93.3546 151.993 93.3756 151.993C93.2916 152.885 93.2129 153.788 93.1395 154.701C93.045 154.69 92.9506 154.68 92.8561 154.674ZM92.3734 168.758C92.3314 170.154 92.2946 171.571 92.2632 173.009C91.7752 172.883 91.2872 172.757 90.7992 172.636C90.9041 171.245 91.0195 169.886 91.1455 168.543C91.5548 168.606 91.9641 168.68 92.3734 168.758ZM91.6807 163.301C91.8119 162.152 91.9483 161.013 92.0952 159.896C92.3209 159.911 92.5465 159.927 92.7774 159.943C92.7092 161.097 92.6462 162.267 92.5885 163.453C92.2841 163.406 91.9851 163.353 91.6807 163.301ZM92.2054 178.418C92.2002 180.05 92.2002 181.709 92.2107 183.382C91.5443 183.162 90.8779 182.942 90.2115 182.737C90.2797 181.116 90.3584 179.531 90.4476 177.957C91.0353 178.109 91.6177 178.256 92.2054 178.418ZM92.2842 188.934C92.3156 190.456 92.3524 191.993 92.3943 193.552C91.5758 193.237 90.7572 192.927 89.9491 192.628C89.9701 191.127 90.0016 189.653 90.0383 188.189C90.7834 188.43 91.5338 188.677 92.2842 188.934ZM92.5937 199.255C92.641 200.405 92.6882 201.559 92.7407 202.719C91.7962 202.315 90.8621 201.926 89.9229 201.538C89.9124 200.431 89.9124 199.324 89.9124 198.222C90.7992 198.558 91.6965 198.899 92.5937 199.255ZM91.4236 237.597C92.7669 238.28 94.1102 238.967 95.4588 239.66C97.6259 261.787 100.622 283.569 103.634 302.706C101.808 301.788 100.008 300.833 98.2293 299.841C95.5322 280.893 92.9715 259.358 91.4236 237.597ZM98.8433 160.714C98.838 162.057 98.8433 163.422 98.8538 164.802C98.5022 164.718 98.1559 164.629 97.8096 164.545C97.8725 163.201 97.9407 161.879 98.0194 160.572C98.2871 160.62 98.5652 160.667 98.8433 160.714ZM98.3815 155.315C98.4707 154.186 98.5704 153.074 98.6754 151.972C98.7751 151.977 98.8748 151.983 98.9745 151.988C98.943 153.106 98.9167 154.244 98.8957 155.388C98.7226 155.367 98.5547 155.341 98.3815 155.315ZM98.9272 170.233C98.9587 171.791 99.0007 173.371 99.0479 174.971C98.5284 174.808 98.0142 174.651 97.5 174.494C97.5262 172.94 97.5577 171.403 97.5997 169.897C98.0404 170.002 98.4812 170.117 98.9272 170.233ZM99.2473 180.559C99.3208 182.333 99.4047 184.133 99.4992 185.954C98.8223 185.702 98.1401 185.439 97.4685 185.198C97.4475 183.43 97.4422 181.688 97.4475 179.972C98.0457 180.155 98.6491 180.36 99.2473 180.559ZM104.631 152.57C104.663 153.882 104.699 155.21 104.746 156.543C104.526 156.49 104.311 156.448 104.096 156.396C104.117 155.079 104.143 153.782 104.175 152.502C104.327 152.523 104.479 152.544 104.631 152.57ZM104.363 147.223C104.411 146.19 104.463 145.166 104.516 144.159C104.516 145.182 104.526 146.211 104.537 147.25C104.479 147.239 104.421 147.229 104.363 147.223ZM104.967 161.994C105.035 163.506 105.114 165.027 105.198 166.56C104.83 166.449 104.463 166.339 104.101 166.229C104.08 164.723 104.07 163.238 104.07 161.774C104.363 161.842 104.668 161.921 104.967 161.994ZM115.792 203.752C115.026 203.385 114.265 203.023 113.504 202.661C113.305 200.835 113.116 199.03 112.932 197.241C113.635 197.561 114.339 197.881 115.042 198.211C115.288 200.037 115.535 201.884 115.792 203.752ZM115.047 145.24C115.052 145.24 115.057 145.24 115.063 145.245C115.204 146.678 115.351 148.131 115.503 149.6C115.44 149.579 115.372 149.564 115.309 149.543C115.21 148.084 115.126 146.646 115.047 145.24ZM126.523 239.444C126.25 237.797 125.982 236.17 125.715 234.554C126.649 235.047 127.583 235.541 128.517 236.039C128.821 237.681 129.125 239.334 129.44 241.003C128.469 240.483 127.493 239.964 126.523 239.444ZM130.7 247.63C131.03 249.372 131.371 251.125 131.712 252.888C130.647 252.316 129.587 251.744 128.527 251.177C128.223 249.43 127.924 247.699 127.63 245.988C128.648 246.534 129.671 247.079 130.7 247.63ZM124.67 228.074C124.424 226.531 124.182 224.999 123.952 223.487C124.796 223.923 125.636 224.359 126.481 224.799C126.754 226.342 127.032 227.9 127.315 229.469C126.434 228.997 125.552 228.535 124.67 228.074ZM122.976 217.081C122.76 215.643 122.551 214.221 122.341 212.809C123.091 213.187 123.847 213.575 124.597 213.953C124.844 215.391 125.09 216.839 125.342 218.293C124.55 217.889 123.763 217.485 122.976 217.081ZM118.227 220.549C118.452 222.044 118.689 223.556 118.925 225.072C117.954 224.574 116.994 224.075 116.028 223.582C115.834 222.097 115.645 220.617 115.456 219.153C116.374 219.615 117.298 220.082 118.227 220.549ZM114.68 212.904C114.512 211.529 114.354 210.165 114.197 208.806C115.021 209.199 115.839 209.593 116.668 209.997C116.868 211.387 117.072 212.788 117.277 214.2C116.411 213.764 115.545 213.329 114.68 212.904ZM119.937 231.516C120.195 233.122 120.457 234.743 120.724 236.375C119.659 235.813 118.594 235.247 117.534 234.69C117.308 233.09 117.088 231.5 116.873 229.921C117.891 230.451 118.914 230.981 119.937 231.516ZM121.805 242.876C122.094 244.587 122.383 246.308 122.682 248.045C121.522 247.426 120.362 246.806 119.208 246.193C118.951 244.487 118.699 242.792 118.452 241.108C119.57 241.701 120.683 242.283 121.805 242.876ZM121.433 206.497C121.165 204.592 120.903 202.708 120.651 200.856C121.291 201.165 121.931 201.475 122.577 201.79C122.881 203.684 123.196 205.599 123.516 207.53C122.818 207.184 122.126 206.843 121.433 206.497ZM119.832 194.654C119.56 192.555 119.302 190.493 119.051 188.462C119.57 188.698 120.095 188.939 120.614 189.181C120.924 191.259 121.249 193.363 121.58 195.483C120.997 195.205 120.415 194.926 119.832 194.654ZM118.326 182.391C118.106 180.47 117.891 178.581 117.692 176.729C118.085 176.897 118.489 177.065 118.883 177.233C118.935 177.626 118.988 178.014 119.045 178.403C119.255 179.919 119.476 181.457 119.701 183.005C119.245 182.795 118.788 182.59 118.326 182.391ZM117.078 170.805C116.899 169.047 116.737 167.32 116.579 165.626C116.852 165.725 117.12 165.82 117.392 165.925C117.613 167.662 117.838 169.425 118.075 171.209C117.739 171.072 117.408 170.936 117.078 170.805ZM116.374 159.964C116.27 159.927 116.17 159.896 116.065 159.859C115.934 158.253 115.808 156.679 115.692 155.131C115.834 155.173 115.97 155.22 116.112 155.262C116.291 156.847 116.474 158.447 116.668 160.074C116.574 160.037 116.474 160 116.374 159.964ZM112.712 238.096C112.953 239.775 113.195 241.454 113.446 243.133C112.24 242.498 111.038 241.864 109.842 241.234C109.637 239.586 109.438 237.939 109.243 236.291C110.393 236.884 111.552 237.487 112.712 238.096ZM108.509 230.005C108.336 228.467 108.168 226.93 108 225.387C109.055 225.917 110.114 226.457 111.174 226.998C111.384 228.567 111.599 230.136 111.815 231.71C110.713 231.143 109.605 230.571 108.509 230.005ZM112.339 191.222C112.15 189.223 111.967 187.244 111.799 185.292C112.366 185.529 112.938 185.775 113.509 186.017C113.746 188.011 113.997 190.036 114.255 192.077C113.614 191.794 112.974 191.505 112.339 191.222ZM111.321 179.421C111.18 177.605 111.048 175.811 110.923 174.047C111.227 174.158 111.526 174.268 111.825 174.383C111.956 174.436 112.093 174.488 112.224 174.541C112.413 176.351 112.612 178.188 112.822 180.045C112.324 179.83 111.82 179.625 111.321 179.421ZM110.56 168.328C110.466 166.686 110.377 165.069 110.298 163.469C110.592 163.558 110.886 163.658 111.18 163.752C111.327 165.384 111.479 167.042 111.641 168.716C111.279 168.59 110.917 168.459 110.56 168.328ZM110.051 157.928C109.994 156.453 109.952 155.005 109.91 153.573C110.062 153.609 110.209 153.641 110.361 153.677C110.466 155.141 110.581 156.621 110.702 158.122C110.482 158.054 110.267 157.991 110.051 157.928ZM109.794 148.168C109.773 146.861 109.763 145.57 109.758 144.301H109.763C109.831 145.586 109.91 146.893 109.989 148.21C109.926 148.199 109.857 148.184 109.794 148.168ZM109.805 216.356C109.983 217.799 110.167 219.248 110.351 220.696C109.348 220.192 108.351 219.694 107.36 219.2C107.218 217.789 107.082 216.377 106.945 214.966C107.895 215.428 108.85 215.889 109.805 216.356ZM106.389 208.89C106.273 207.588 106.163 206.292 106.058 204.996C106.903 205.379 107.753 205.767 108.603 206.166C108.755 207.499 108.908 208.832 109.06 210.17C108.168 209.74 107.276 209.309 106.389 208.89ZM105.591 199.025C105.465 197.298 105.345 195.582 105.229 193.867C105.423 193.945 105.612 194.024 105.806 194.103C106.336 194.328 106.872 194.559 107.402 194.785C107.575 196.543 107.758 198.306 107.942 200.079C107.155 199.733 106.368 199.376 105.591 199.025ZM104.872 188.047C104.767 186.153 104.668 184.28 104.584 182.438C105.166 182.653 105.749 182.868 106.336 183.099C106.494 185.004 106.662 186.93 106.835 188.861C106.184 188.582 105.528 188.31 104.872 188.047ZM104.348 176.76C104.285 175.06 104.237 173.386 104.196 171.739C104.636 171.875 105.082 172.022 105.528 172.169C105.639 173.874 105.759 175.595 105.885 177.327C105.371 177.133 104.857 176.944 104.348 176.76ZM104.19 238.274C102.926 237.618 101.666 236.963 100.407 236.312C100.255 234.722 100.113 233.132 99.9714 231.542C101.184 232.151 102.401 232.78 103.618 233.4C103.802 235.026 103.996 236.653 104.19 238.274ZM99.452 225.418C99.3313 223.944 99.2158 222.47 99.1056 220.995C100.213 221.53 101.32 222.076 102.432 222.622C102.59 224.133 102.747 225.639 102.915 227.15C101.756 226.568 100.606 225.996 99.452 225.418ZM98.6806 214.961C98.5914 213.628 98.5074 212.3 98.4287 210.973C98.7593 211.125 99.0846 211.267 99.4152 211.419C100.082 211.728 100.759 212.043 101.43 212.358C101.556 213.728 101.687 215.102 101.818 216.477C100.769 215.968 99.7248 215.459 98.6806 214.961ZM98.1087 205.069C98.0457 203.852 97.988 202.64 97.9355 201.428C98.817 201.8 99.7038 202.178 100.596 202.567C100.696 203.821 100.795 205.075 100.9 206.334C99.9662 205.904 99.0374 205.484 98.1087 205.069ZM97.7151 195.656C97.6941 195.037 97.6679 194.412 97.6521 193.793C97.6207 192.796 97.5997 191.815 97.5787 190.834C98.329 191.112 99.0794 191.4 99.835 191.694C99.9399 193.347 100.045 195.01 100.166 196.679C99.3418 196.327 98.5284 195.986 97.7151 195.656ZM101.021 242.535C102.333 243.217 103.65 243.905 104.972 244.597C107.785 266.883 111.227 288.654 114.538 307.649C112.806 306.946 111.085 306.222 109.385 305.455C106.352 286.523 103.288 264.763 101.021 242.535ZM110.639 247.583C111.893 248.244 113.147 248.911 114.407 249.582C117.566 270.32 121.244 291.288 125.085 311.469C123.458 310.949 121.842 310.404 120.242 309.832C116.962 291.214 113.509 269.716 110.639 247.583ZM120.195 252.662C121.401 253.308 122.608 253.953 123.82 254.604C127.089 273.237 130.899 293.161 135.233 314.308C133.733 313.946 132.237 313.557 130.752 313.148C126.628 291.645 123.107 271.453 120.195 252.662ZM129.687 257.752C130.794 258.345 131.901 258.943 133.014 259.542C136.498 277.199 140.449 296.089 144.894 316.307C143.54 316.076 142.186 315.824 140.848 315.556C136.519 294.573 132.819 275.346 129.687 257.752ZM136.661 250.836C141.861 253.644 147.124 256.503 152.465 259.4C180.754 274.764 209.409 290.322 236.805 302.706C235.541 303.341 234.265 303.96 232.98 304.563C203.889 291.797 173.176 275.236 142.858 258.886C141.131 257.957 139.41 257.028 137.689 256.099C137.337 254.336 136.996 252.578 136.661 250.836ZM154.963 254.793C148.32 251.188 141.808 247.651 135.38 244.193C135.065 242.525 134.75 240.867 134.441 239.219C144.007 244.366 153.793 249.74 163.815 255.249C191.259 270.335 219.059 285.605 245.663 297.857C244.666 298.45 243.658 299.028 242.645 299.599C214.347 287.037 184.458 270.808 154.963 254.793ZM166.35 250.647C155.016 244.419 143.986 238.358 133.224 232.602C132.935 231.023 132.646 229.454 132.368 227.895C146.205 235.241 160.578 243.265 175.396 251.545C201.528 266.143 227.995 280.914 253.387 292.962C252.594 293.497 251.797 294.022 250.999 294.546C223.645 282.142 194.801 266.29 166.35 250.647ZM177.957 246.969C161.806 237.949 146.2 229.233 131.198 221.352C130.941 219.877 130.684 218.419 130.432 216.965C147.884 226.059 166.386 236.6 185.576 247.546C210.521 261.772 235.792 276.176 260.093 288.129C259.494 288.585 258.891 289.042 258.288 289.488C232.271 277.293 204.928 262.034 177.957 246.969ZM188.178 242.986C167.646 231.274 147.9 220.014 129.325 210.474C128.994 208.522 128.674 206.586 128.359 204.671C149.039 215.129 171.592 228.31 195.094 242.047C219.2 256.136 243.632 270.404 267.155 282.399C266.326 283.118 265.487 283.826 264.642 284.524C239.822 272.429 213.827 257.616 188.178 242.986ZM197.744 237.513C172.883 222.984 149.076 209.073 127.331 198.285C126.99 196.128 126.654 193.998 126.334 191.888C149.747 203.228 176.257 219.153 203.989 235.813C227.365 249.855 251.057 264.081 273.898 276.186C273.053 277.015 272.193 277.834 271.327 278.642C247.405 266.526 222.407 251.928 197.744 237.513ZM206.691 231.311C177.579 213.822 149.815 197.146 125.389 185.618C125.095 183.629 124.812 181.667 124.539 179.72C150.115 191.385 180.449 210.154 212.295 229.863C234.832 243.81 257.679 257.941 279.738 270.141C279.083 270.86 278.421 271.574 277.75 272.277C254.614 260.093 230.487 245.605 206.691 231.311ZM215.055 225.408C181.819 204.839 150.214 185.282 123.684 173.591C123.437 171.754 123.196 169.944 122.965 168.15C150.104 179.526 184.17 201.291 220.04 224.201C241.669 238.017 263.593 252.017 284.813 264.285C284.309 264.899 283.795 265.503 283.28 266.106C261.027 253.848 237.881 239.534 215.055 225.408ZM222.863 219.783C185.592 195.971 150.251 173.397 122.209 162.173C122.005 160.478 121.805 158.809 121.611 157.156C149.679 167.578 187.412 192.486 227.25 218.786C247.935 232.445 268.908 246.282 289.252 258.602C288.869 259.117 288.48 259.62 288.092 260.129C266.778 247.824 244.666 233.709 222.863 219.783ZM230.146 214.41C188.903 187.176 149.894 161.428 120.966 151.348C120.798 149.779 120.635 148.236 120.483 146.704C148.824 155.446 190.193 183.692 233.977 213.596C253.712 227.077 273.72 240.735 293.177 253.072C292.893 253.492 292.6 253.906 292.311 254.321C271.951 242.005 250.905 228.116 230.146 214.41ZM236.936 209.267C192.382 178.838 150.303 150.094 121.155 141.42C120.751 141.299 120.347 141.184 119.943 141.073C119.811 139.625 119.686 138.193 119.57 136.781C120.331 136.949 121.102 137.133 121.879 137.337C149.931 144.762 193.798 175.779 240.247 208.611C259.038 221.898 278.086 235.357 296.656 247.672C296.451 248.008 296.241 248.339 296.031 248.674C276.637 236.375 256.65 222.727 236.936 209.267ZM243.275 204.324C196.432 171.209 152.187 139.93 123.222 132.263C121.847 131.901 120.488 131.592 119.15 131.329C119.056 129.996 118.967 128.685 118.883 127.389C120.509 127.567 122.173 127.84 123.894 128.233C151.437 134.514 197.419 168.171 246.103 203.794C263.96 216.865 282.063 230.104 299.746 242.372C299.605 242.63 299.463 242.887 299.316 243.144C280.888 230.907 261.955 217.527 243.275 204.324ZM249.204 199.56C200.069 163.605 153.662 129.64 125.064 123.117C122.85 122.614 120.688 122.272 118.584 122.084C118.526 120.877 118.468 119.691 118.421 118.521C120.735 118.431 123.159 118.615 125.715 119.093C152.56 124.119 200.672 160.562 251.608 199.145C268.551 211.98 285.715 224.978 302.533 237.157C302.438 237.346 302.349 237.534 302.255 237.718C284.771 225.581 266.872 212.489 249.204 199.56ZM254.777 194.963C203.333 155.997 154.743 119.187 126.685 113.934C123.763 113.389 120.95 113.174 118.258 113.284C118.232 112.245 118.211 111.216 118.201 110.204C121.018 109.516 124.062 109.406 127.357 109.868C153.331 113.536 203.595 152.938 256.813 194.648C272.844 207.216 289.084 219.94 305.03 231.988C304.973 232.114 304.915 232.235 304.857 232.361C288.323 220.365 271.443 207.583 254.777 194.963ZM260.045 190.524C206.261 148.362 155.456 108.54 128.086 104.673C124.592 104.18 121.286 104.237 118.174 104.841C118.18 104.043 118.19 103.261 118.206 102.485C121.349 100.822 124.854 100.171 128.795 100.522C153.735 102.742 206.203 145.282 261.751 190.314C276.873 202.577 292.19 214.987 307.266 226.846C307.24 226.914 307.213 226.977 307.187 227.045C291.597 215.244 275.719 202.808 260.045 190.524ZM131.681 71.3002C140.916 70.1878 159.066 80.3675 187.16 102.411C212.835 122.556 243.181 149.679 275.31 178.397C281.937 184.322 288.612 190.283 295.281 196.223C288.313 190.22 281.339 184.185 274.418 178.188C210.506 122.85 155.325 75.0573 130.805 76.0333C127.572 76.1592 124.613 77.046 121.947 78.6779C122.33 78.0168 122.724 77.4133 123.122 76.8519C125.51 73.5198 128.307 71.7043 131.681 71.3002ZM123.689 68.9075C124.13 67.9892 124.597 67.1391 125.09 66.3678C127.016 63.3558 129.267 61.6085 131.969 61.026C140.36 59.2157 159.114 70.0671 187.727 93.2706C214.278 114.806 245.941 144.001 279.466 174.913C281.25 176.561 283.039 178.209 284.828 179.856C282.819 178.062 280.814 176.267 278.81 174.478C212.048 114.811 154.391 63.2824 131.051 66.0897C128.365 66.4097 125.904 67.3595 123.689 68.9075ZM131.014 81.2753C153.441 80.3833 213.198 132.122 270.986 182.155C281.78 191.5 292.684 200.94 303.524 210.207C292.311 200.95 281.024 191.489 269.842 182.118C240.242 157.309 212.285 133.879 188.074 116.086C160.384 95.7369 141.987 86.0976 130.185 85.7565C126.318 85.6463 122.771 86.4597 119.575 88.186C119.843 87.803 120.116 87.4304 120.399 87.0736C123.338 83.3375 126.811 81.4432 131.014 81.2753ZM130.033 90.9986C140.575 91.3081 158.542 100.895 184.967 120.315C209.042 138.004 236.936 161.386 266.468 186.137C280.683 198.054 295.082 210.112 309.276 221.724C309.276 221.73 309.27 221.74 309.27 221.745C294.625 210.207 279.749 198.148 265.057 186.237C208.869 140.68 155.797 97.6521 129.262 95.2909C125.358 94.9445 121.727 95.4063 118.395 96.6551C118.416 96.2459 118.437 95.8418 118.458 95.4378C121.737 92.3261 125.542 90.8726 130.033 90.9986ZM170.222 21.9704C252.101 21.9704 318.474 88.3434 318.474 170.222C318.474 180.685 317.383 190.891 315.32 200.74C304.563 190.923 293.728 180.937 283.018 171.057C249.43 140.087 217.705 110.833 191.028 89.1935C159.859 63.912 141.299 53.6431 130.857 55.8942C126.78 56.7757 123.348 59.3469 120.667 63.5395C109.438 81.0917 114.192 115.503 70.1773 154.695C55.4377 167.819 45.0008 174.205 22.5844 183.703C22.1856 179.258 21.9652 174.766 21.9652 170.217C21.9704 88.3434 88.3434 21.9704 170.222 21.9704ZM24.6623 196.307C24.7357 196.202 24.8092 196.102 24.8827 195.997C25.4389 196.06 25.9951 196.123 26.5618 196.196C26.4831 196.359 26.4044 196.516 26.3257 196.679C25.7642 196.553 25.2132 196.427 24.6623 196.307ZM27.2335 209.477C28.3301 209.839 29.4321 210.212 30.555 210.595C30.0985 212.447 29.6839 214.352 29.2799 216.293C28.5453 214.042 27.8631 211.77 27.2335 209.477ZM32.4388 203.663C32.2551 204.272 32.0767 204.886 31.9035 205.505C30.8226 205.132 29.7469 204.77 28.6765 204.414C28.8916 203.878 29.1067 203.348 29.3271 202.824C30.3503 203.086 31.3893 203.369 32.4388 203.663ZM31.5362 197.965C31.6937 197.645 31.8563 197.33 32.0137 197.015C32.8271 197.157 33.6561 197.309 34.4852 197.471C34.3435 197.86 34.2071 198.253 34.0707 198.647C33.2154 198.411 32.3706 198.185 31.5362 197.965ZM33.6824 221.194C34.2386 218.146 34.8578 215.207 35.5399 212.379C36.8622 212.867 38.195 213.371 39.5331 213.885C39.3914 214.719 39.255 215.559 39.1238 216.409C38.195 222.375 37.4814 228.672 36.9829 235.294C35.5084 232.282 34.1389 229.218 32.869 226.095C33.1262 224.432 33.3938 222.795 33.6824 221.194ZM34.6846 192.219C34.7161 192.172 34.7423 192.119 34.7738 192.072C35.3615 192.109 35.9492 192.156 36.5421 192.203C36.4949 192.319 36.4477 192.434 36.4005 192.549C35.8233 192.434 35.2513 192.324 34.6846 192.219ZM42.6395 199.287C42.4821 199.88 42.3352 200.478 42.183 201.082C41.1545 200.751 40.1365 200.431 39.1238 200.127C39.3075 199.607 39.4911 199.093 39.68 198.579C40.656 198.799 41.6425 199.035 42.6395 199.287ZM41.6268 193.688C41.7527 193.394 41.8786 193.095 42.0098 192.807C42.7969 192.917 43.5893 193.037 44.3921 193.169C44.2767 193.541 44.1612 193.908 44.0458 194.281C43.2377 194.071 42.4296 193.872 41.6268 193.688ZM40.9866 206.245C40.8187 207.032 40.656 207.824 40.4934 208.627C39.2812 208.165 38.0744 207.714 36.8727 207.273C37.0774 206.554 37.282 205.846 37.4919 205.143C38.6463 205.495 39.8112 205.862 40.9866 206.245ZM44.5128 215.837C45.8718 216.383 47.2361 216.944 48.6057 217.516C47.4565 228.236 46.9055 239.953 46.9528 252.599C45.111 249.85 43.3584 247.037 41.7002 244.162C42.162 233.951 43.096 224.49 44.5128 215.837ZM47.6926 200.636C48.7474 200.935 49.8073 201.239 50.883 201.564C50.7413 202.336 50.6049 203.117 50.4737 203.905C49.3613 203.506 48.2541 203.112 47.1627 202.74C47.3358 202.026 47.509 201.328 47.6926 200.636ZM47.2939 182.816C47.3673 182.7 47.4408 182.58 47.5142 182.464C47.7923 182.433 48.0705 182.391 48.3538 182.359C48.2803 182.527 48.2121 182.7 48.1387 182.868C47.8606 182.852 47.572 182.831 47.2939 182.816ZM60.2809 196.663C60.1707 197.424 60.0605 198.201 59.9556 198.977C58.9428 198.636 57.9459 198.311 56.9489 197.986C57.0958 197.282 57.2427 196.585 57.4001 195.892C58.3499 196.144 59.3102 196.396 60.2809 196.663ZM58.607 190.818C58.7225 190.356 58.8484 189.905 58.9691 189.454C59.7719 189.59 60.5852 189.732 61.4038 189.889C61.3094 190.419 61.2097 190.949 61.1205 191.484C60.2704 191.253 59.4361 191.028 58.607 190.818ZM57.5208 176.766C57.3267 176.76 57.1378 176.766 56.9436 176.76C57.1798 176.346 57.4159 175.931 57.652 175.527C57.7727 175.506 57.8934 175.485 58.0193 175.464C57.8514 175.895 57.6835 176.33 57.5208 176.766ZM59.2944 204.272C59.1895 205.206 59.0845 206.15 58.9848 207.105C57.8147 206.649 56.6603 206.198 55.5164 205.762C55.658 204.886 55.805 204.015 55.9571 203.154C57.0591 203.511 58.1715 203.884 59.2944 204.272ZM58.4758 212.584C58.3866 213.686 58.3027 214.798 58.2187 215.916C56.9121 215.344 55.6056 214.772 54.3095 214.221C54.3515 213.901 54.3882 213.575 54.4249 213.255C54.5141 212.536 54.6138 211.828 54.7083 211.12C55.9571 211.592 57.206 212.08 58.4758 212.584ZM55.212 183.545C54.6873 183.477 54.1626 183.409 53.6431 183.351C53.8425 182.9 54.0471 182.454 54.257 182.008C54.7345 181.997 55.212 181.987 55.7 181.987C55.5374 182.501 55.3747 183.02 55.212 183.545ZM53.7375 188.687C53.6588 188.992 53.5749 189.291 53.4961 189.595C52.7563 189.433 52.0217 189.27 51.2923 189.123C51.3763 188.897 51.4602 188.661 51.5442 188.436C52.2735 188.509 53.0082 188.598 53.7375 188.687ZM52.284 194.664C52.1528 195.247 52.0217 195.834 51.8957 196.427C50.9617 196.149 50.0329 195.881 49.1147 195.624C49.2721 195.115 49.4243 194.606 49.5869 194.103C50.4737 194.276 51.371 194.459 52.284 194.664ZM49.6394 209.22C49.503 210.17 49.3718 211.13 49.2459 212.096C47.976 211.571 46.7114 211.057 45.4521 210.553C45.6252 209.666 45.7984 208.785 45.982 207.919C47.1889 208.339 48.4063 208.774 49.6394 209.22ZM46.0712 188.152C45.8404 188.115 45.599 188.068 45.3681 188.032C45.6147 188.037 45.8561 188.047 46.1027 188.058C46.0922 188.089 46.0817 188.121 46.0712 188.152ZM53.7008 219.673C55.0861 220.271 56.4766 220.88 57.8724 221.499C57.1378 235.399 57.2165 250.752 58.098 267.218C56.0936 264.904 54.1678 262.517 52.305 260.082C52.0007 245.468 52.4624 231.972 53.7008 219.673ZM60.4383 184.353C60.6692 183.619 60.9001 182.894 61.1415 182.186C61.7397 182.228 62.3378 182.275 62.9413 182.328C62.7629 183.115 62.5897 183.907 62.4165 184.71C61.7554 184.579 61.0995 184.469 60.4383 184.353ZM63.6759 273.295C62.49 255.26 62.2539 238.694 62.9623 223.787C64.3581 224.427 65.7643 225.072 67.1758 225.733C67.0499 242.005 67.8528 259.93 69.5581 279.051C67.5484 277.188 65.5859 275.268 63.6759 273.295ZM150.45 317.157C146.195 297.842 142.385 279.749 139.001 262.769C139.452 263.015 139.909 263.257 140.36 263.503C169.251 279.083 198.5 294.851 226.484 307.407C209.131 314.533 190.136 318.469 170.217 318.469C163.516 318.474 156.92 318.023 150.45 317.157Z" fill="white"/>
<path d="M420.44 249V89.06H516.36V111.72H451.9V249H420.44ZM460.26 176.18C461.213 172.953 462.57 169.617 464.33 166.17C466.163 162.723 468.546 159.827 471.48 157.48C474.413 155.133 478.006 153.96 482.26 153.96H508.88V176.18H460.26ZM547.156 249V82.24H577.736V249H547.156ZM637.846 251.86C632.786 251.86 627.909 250.577 623.216 248.01C618.523 245.443 614.673 241.557 611.666 236.35C608.733 231.07 607.266 224.433 607.266 216.44V135.26H637.846V216C637.846 219.593 638.579 222.6 640.046 225.02C641.586 227.367 644.226 228.54 647.966 228.54C649.433 228.54 650.826 228.357 652.146 227.99C653.466 227.55 655.153 227.293 657.206 227.22C660.653 227 663.586 228.503 666.006 231.73C668.499 234.883 670.773 238.22 672.826 241.74C665.566 245.553 659.186 248.193 653.686 249.66C648.186 251.127 642.906 251.86 637.846 251.86ZM686.686 249C683.313 245.04 681.039 241.117 679.866 237.23C678.693 233.343 678.106 229.2 678.106 224.8V135.26H708.906V221.28C708.906 225.313 709.199 229.64 709.786 234.26C710.373 238.88 711.253 243.793 712.426 249H686.686ZM804.008 249C798.435 239.833 792.641 230.667 786.628 221.5C780.688 212.26 774.675 203.093 768.588 194L730.088 135.26H765.068L782.228 167.16L783.548 171.78L785.308 167.16L802.688 135.26H836.128L798.508 192.68L838.328 249H804.008ZM728.108 249L761.988 200.6C763.895 202.947 765.801 205.953 767.708 209.62C769.688 213.213 770.971 217.137 771.558 221.39C772.218 225.643 771.521 229.86 769.468 234.04L761.328 249H728.108ZM858.716 249V89.06H890.396V226.12H948.036V249H858.716ZM1000.45 251.86C993.411 251.86 987.324 250.32 982.191 247.24C977.131 244.087 973.207 239.98 970.421 234.92C967.707 229.86 966.351 224.433 966.351 218.64C966.351 212.553 968.147 206.797 971.741 201.37C975.334 195.943 981.494 191.36 990.221 187.62C999.021 183.807 1011.16 181.313 1026.63 180.14C1026.12 183.587 1025.27 186.777 1024.1 189.71C1022.93 192.57 1021.31 194.953 1019.26 196.86C1017.28 198.767 1014.75 200.013 1011.67 200.6C1008 201.187 1005 202.213 1002.65 203.68C1000.3 205.147 998.581 206.943 997.481 209.07C996.381 211.123 995.831 213.36 995.831 215.78C995.831 219.593 997.187 222.783 999.901 225.35C1002.61 227.917 1005.88 229.2 1009.69 229.2C1013.87 229.2 1018.09 227.77 1022.34 224.91C1026.67 221.977 1030.74 218.273 1034.55 213.8V180.58C1034.55 172.953 1032.42 166.867 1028.17 162.32C1023.99 157.773 1018.05 155.5 1010.35 155.5C1006.76 155.5 1002.87 155.867 998.691 156.6C994.511 157.333 989.817 158.653 984.611 160.56L977.131 141.2C983.657 138.193 990.367 136.067 997.261 134.82C1004.23 133.5 1010.28 132.84 1015.41 132.84C1031.03 132.84 1043.06 136.947 1051.49 145.16C1060 153.373 1064.25 165.18 1064.25 180.58V221.28C1064.25 225.313 1064.51 229.64 1065.02 234.26C1065.53 238.88 1066.45 243.793 1067.77 249H1045.11C1043.13 247.9 1041.48 246.36 1040.16 244.38C1038.91 242.327 1037.85 240.2 1036.97 238L1036.31 233.6L1033.67 237.34C1027.07 243.353 1021.28 247.277 1016.29 249.11C1011.38 250.943 1006.1 251.86 1000.45 251.86ZM1104.73 303.56C1101.8 303.413 1098.61 303.047 1095.16 302.46C1091.71 301.947 1088.23 300.92 1084.71 299.38L1091.75 279.58C1094.32 280.24 1096.59 280.643 1098.57 280.79C1100.62 281.01 1102.68 281.12 1104.73 281.12C1109.86 281.12 1114.08 279.58 1117.38 276.5C1120.68 273.42 1123.58 268.873 1126.07 262.86C1128.64 256.92 1131.35 249.587 1134.21 240.86L1166.77 135.26H1198.23L1157.97 246.58C1154.3 256.04 1150.86 264.327 1147.63 271.44C1144.4 278.553 1140.88 284.493 1137.07 289.26C1133.33 294.027 1128.89 297.583 1123.76 299.93C1118.63 302.35 1112.28 303.56 1104.73 303.56ZM1121.01 246.14L1080.09 135.26H1113.09L1128.49 187.18C1130.47 193.56 1131.28 200.527 1130.91 208.08C1130.54 215.633 1129.41 222.82 1127.5 229.64C1125.67 236.46 1123.5 241.96 1121.01 246.14ZM1276.68 251.86C1266.64 251.86 1257.95 250.1 1250.61 246.58C1243.28 242.987 1237.23 238.22 1232.46 232.28C1227.77 226.267 1224.29 219.63 1222.01 212.37C1219.74 205.037 1218.6 197.667 1218.6 190.26C1218.6 178.16 1221.17 167.783 1226.3 159.13C1231.51 150.477 1238.48 143.877 1247.2 139.33C1255.93 134.71 1265.61 132.4 1276.24 132.4C1284.38 132.4 1291.75 134.013 1298.35 137.24C1305.03 140.393 1310.45 144.867 1314.63 150.66C1318.89 156.453 1321.45 163.31 1322.33 171.23C1323.29 179.15 1322.15 187.84 1318.92 197.3H1257.32C1258.86 192.24 1261.17 187.987 1264.25 184.54C1267.33 181.02 1270.74 179.26 1274.48 179.26H1294.06C1294.65 174.787 1294.25 170.607 1292.85 166.72C1291.46 162.833 1289.19 159.717 1286.03 157.37C1282.95 154.95 1279.18 153.74 1274.7 153.74C1270.67 153.74 1266.67 154.95 1262.71 157.37C1258.75 159.79 1255.45 163.603 1252.81 168.81C1250.25 174.017 1248.96 180.8 1248.96 189.16C1248.96 197.593 1250.25 204.817 1252.81 210.83C1255.45 216.77 1259.08 221.317 1263.7 224.47C1268.4 227.623 1273.82 229.2 1279.98 229.2C1285.04 229.2 1290.07 228.577 1295.05 227.33C1300.04 226.01 1305.72 223.92 1312.1 221.06L1319.8 241.52C1311.88 245.26 1304.4 247.9 1297.36 249.44C1290.4 251.053 1283.5 251.86 1276.68 251.86ZM1347.4 249V162.98C1347.4 158.873 1347.15 154.51 1346.63 149.89C1346.12 145.27 1345.2 140.393 1343.88 135.26H1367.2C1368.45 136.213 1369.77 138.23 1371.16 141.31C1372.56 144.39 1373.51 147.8 1374.02 151.54L1374.46 156.82L1376.66 151.54C1379.67 145.673 1383.52 141.127 1388.21 137.9C1392.98 134.673 1397.71 133.06 1402.4 133.06C1404.75 133.06 1407.06 133.28 1409.33 133.72C1411.61 134.16 1414.06 134.82 1416.7 135.7L1413.18 160.56C1410.25 159.68 1407.79 159.093 1405.81 158.8C1403.83 158.507 1401.96 158.36 1400.2 158.36C1395.22 158.36 1390.93 160.01 1387.33 163.31C1383.74 166.537 1380.99 170.973 1379.08 176.62C1377.18 182.267 1376.22 188.72 1376.22 195.98V249H1347.4Z" fill="white"/>
</svg>
